<?xml version="1.0" ?><!DOCTYPE svg  PUBLIC '-//W3C//DTD SVG 1.1//EN'  'http://www.w3.org/Graphics/SVG/1.1/DTD/svg11.dtd'><svg height="32px" id="Layer_1" style="enable-background:new 0 0 32 32;" version="1.1" viewBox="0 0 32 32" width="32px" xml:space="preserve" xmlns="http://www.w3.org/2000/svg" xmlns:xlink="http://www.w3.org/1999/xlink"><g transform="translate(528 240)"><path d="M-528-215.999l8,7.998h-8V-215.999z M-507.984-239.329c-1.563,1.561-0.295,5.359,2.83,8.483   c3.123,3.124,6.922,4.392,8.484,2.829s0.295-5.361-2.828-8.484C-502.623-239.626-506.422-240.893-507.984-239.329z    M-503.41-226.931l-14.473,14.473l2.828,2.83l15.805-15.807C-500.555-225.577-501.977-226.067-503.41-226.931z M-506.568-229.43   c-0.486-0.487-0.93-0.987-1.334-1.493l-14.222,14.224l2.827,2.827l14.223-14.223C-505.582-228.501-506.082-228.942-506.568-229.43z    M-510.564-236.749l-15.802,15.806l2.828,2.827l14.472-14.473C-509.928-234.021-510.422-235.442-510.564-236.749z"/></g></svg>